<svg width="19" height="19" viewBox="0 0 19 19" fill="none" xmlns="http://www.w3.org/2000/svg">
<path d="M16.7771 0.808271C17.168 0.417217 17.802 0.417277 18.1928 0.808406C18.5834 1.19929 18.5833 1.83279 18.1926 2.22354L9.99967 10.4164C9.81287 10.6032 9.55969 10.7084 9.29552 10.709C8.74362 10.7101 8.29537 10.262 8.29459 9.71006C8.29421 9.44416 8.39965 9.18841 8.58764 9.00036L16.7771 0.808271Z" fill="#3DA9FC"/>
<path d="M11.3428 1.0001C12.2337 1.0001 12.6799 2.07724 12.0499 2.7072C11.8624 2.89474 11.608 3.0001 11.3428 3.0001H6.77C5.11814 3.0001 4.29221 3.0001 3.65906 3.31646C3.07792 3.60684 2.60675 4.07802 2.31637 4.65916C2 5.29231 2 6.11824 2 7.7701V12.2301C2 13.882 2 14.7079 2.31637 15.341C2.60675 15.9222 3.07792 16.3934 3.65906 16.6837C4.29221 17.0001 5.11814 17.0001 6.77 17.0001H11.23C12.8819 17.0001 13.7078 17.0001 14.3409 16.6837C14.9221 16.3934 15.3933 15.9222 15.6836 15.341C16 14.7079 16 13.882 16 12.2301V7.65731C16 7.39209 16.1054 7.13774 16.2929 6.9502C16.9229 6.32024 18 6.76641 18 7.65731V14.9708C18 15.9281 18 16.4068 17.8917 16.7988C17.6108 17.816 16.8159 18.6109 15.7987 18.8918C15.4067 19.0001 14.928 19.0001 13.9707 19.0001H4.77C3.11814 19.0001 2.29221 19.0001 1.65906 18.6837C1.07792 18.3933 0.606746 17.9222 0.316366 17.341C0 16.7079 0 15.882 0 14.2301V5.02943C0 4.07209 0 3.59342 0.10827 3.20141C0.389235 2.18415 1.18405 1.38933 2.20131 1.10837C2.59332 1.0001 3.07199 1.0001 4.02933 1.0001H11.3428Z" fill="#3DA9FC"/>
</svg>
