<svg width="18" height="18" viewBox="0 0 18 18" fill="none" xmlns="http://www.w3.org/2000/svg">
<g clip-path="url(#clip0_455_1103)">
<path fill-rule="evenodd" clip-rule="evenodd" d="M4.63727 17.8315L8.9998 15.0797L11.9432 5.55857L9.97217 0.660425C9.88457 0.440283 9.74897 0.275177 9.56535 0.165106C9.38104 0.0550355 9.19252 0 8.9998 0C8.80708 0 8.61891 0.0550355 8.4353 0.165106C8.25099 0.275177 8.11503 0.440283 8.02743 0.660425L6.0564 5.55857L0.958022 6.02637C0.712739 6.06306 0.520017 6.14561 0.379855 6.27403C0.239694 6.40245 0.134572 6.56755 0.0644915 6.76935C-0.00558931 6.97115 -0.0185542 7.17734 0.0255967 7.38795C0.0690469 7.59928 0.178373 7.7875 0.353575 7.95261L4.21678 11.4474L3.06045 16.6482C3.00789 16.8867 3.02541 17.1024 3.11301 17.2954C3.20061 17.4877 3.32325 17.648 3.48093 17.7764C3.63862 17.9048 3.82258 17.9782 4.03282 17.9966C4.24306 18.0149 4.44455 17.9599 4.63727 17.8315ZM17.0416 6.02637L17.3404 6.1036L17.6197 6.27403C17.4801 6.18882 17.2869 6.06306 17.0416 6.02637ZM17.9351 6.76935L17.9985 7.08905L17.9751 7.38795C18.0185 7.17734 18.0052 6.97115 17.9351 6.76935ZM14.9392 16.6482C15.0037 16.9201 14.9906 17.0616 14.8866 17.2954C14.988 17.0989 15.0036 16.8835 14.9392 16.6482ZM14.5187 17.7764C14.3146 17.9304 14.1923 17.9715 13.9668 17.9966C14.177 17.9782 14.361 17.9048 14.5187 17.7764Z" fill="#F5C549"/>
</g>
<defs>
<clipPath id="clip0_455_1103">
<rect width="18" height="18" fill="white"/>
</clipPath>
</defs>
</svg>
