<svg width="28" height="28" viewBox="0 0 28 28" fill="none" xmlns="http://www.w3.org/2000/svg">
<path d="M7.00008 2.33301H17.5001C18.1189 2.33301 18.7124 2.57884 19.15 3.01643C19.5876 3.45401 19.8334 4.0475 19.8334 4.66634V5.99967C19.8334 6.55196 19.3857 6.99967 18.8334 6.99967H18.5001C17.9478 6.99967 17.5001 6.55196 17.5001 5.99967V5.66634C17.5001 5.11406 17.0524 4.66634 16.5001 4.66634H8.00008C7.4478 4.66634 7.00008 5.11406 7.00008 5.66634V22.333C7.00008 22.8853 7.4478 23.333 8.00008 23.333H16.5001C17.0524 23.333 17.5001 22.8853 17.5001 22.333V21.9997C17.5001 21.4474 17.9478 20.9997 18.5001 20.9997H18.8334C19.3857 20.9997 19.8334 21.4474 19.8334 21.9997V23.333C19.8334 23.9518 19.5876 24.5453 19.15 24.9829C18.7124 25.4205 18.1189 25.6663 17.5001 25.6663H7.00008C6.38124 25.6663 5.78775 25.4205 5.35017 24.9829C4.91258 24.5453 4.66675 23.9518 4.66675 23.333V4.66634C4.66675 4.0475 4.91258 3.45401 5.35017 3.01643C5.78775 2.57884 6.38124 2.33301 7.00008 2.33301Z" fill="#EB0029"/>
<path d="M19.476 17.4816C19.0868 17.8723 19.0874 18.5044 19.4774 18.8944L19.7096 19.1266C20.1001 19.5171 20.7332 19.5171 21.1238 19.1266L25.5429 14.7074C25.9334 14.3169 25.9334 13.6837 25.5429 13.2932L21.1238 8.8741C20.7332 8.48357 20.1001 8.48357 19.7096 8.8741L19.4774 9.10625C19.0874 9.49624 19.0868 10.1284 19.476 10.5191L21.7817 12.8337H11.5C10.9477 12.8337 10.5 13.2814 10.5 13.8337V14.167C10.5 14.7193 10.9477 15.167 11.5 15.167H21.7817L19.476 17.4816Z" fill="#EB0029"/>
</svg>
