<svg width="44" height="44" viewBox="0 0 44 44" fill="none" xmlns="http://www.w3.org/2000/svg">
<g clip-path="url(#clip0_146_1166)">
<path d="M22.2663 36.4386L21.9995 36.2703L21.7328 36.4386L11.0688 43.1651L11.0687 43.165L11.0583 43.1719C10.6719 43.4294 10.2911 43.5275 9.90147 43.4935C9.48331 43.457 9.12942 43.314 8.82469 43.0658L8.50895 43.4535L8.82469 43.0658C8.50138 42.8025 8.24823 42.4733 8.06474 42.0707C7.90206 41.7122 7.86054 41.2975 7.96925 40.8038C7.96929 40.8036 7.96933 40.8034 7.96938 40.8032L10.7958 28.0909L10.8589 27.8069L10.6431 27.6116L1.20361 19.0724C0.843362 18.7318 0.63518 18.3617 0.552329 17.9587L0.551932 17.9568C0.462474 17.5301 0.48865 17.1183 0.629974 16.7113C0.777503 16.2865 0.992054 15.9564 1.2663 15.7052C1.51396 15.4783 1.87872 15.308 2.40215 15.2277L14.8502 14.0855L15.1544 14.0576L15.2684 13.7743L20.0865 1.80103L20.0872 1.79924C20.2651 1.35206 20.5297 1.03969 20.876 0.83287L20.8767 0.832439C21.2567 0.604635 21.6288 0.5 21.9995 0.5C22.3703 0.5 22.7434 0.604649 23.1255 0.832774C23.4699 1.03942 23.7338 1.35175 23.9119 1.79924L23.9126 1.80103L28.7306 13.7743L28.8447 14.0576L29.1488 14.0855L41.5969 15.2277C42.1203 15.308 42.4851 15.4783 42.7327 15.7052C43.007 15.9564 43.2215 16.2865 43.3691 16.7113C43.5105 17.1185 43.5374 17.5305 43.4496 17.9573C43.3652 18.361 43.1559 18.7316 42.7954 19.0725L33.3559 27.6116L33.1401 27.8069L33.2033 28.0909L36.0297 40.8032C36.0297 40.8035 36.0298 40.8038 36.0298 40.8041C36.1384 41.2975 36.097 41.7119 35.9345 42.0704C35.751 42.4731 35.4978 42.8024 35.1743 43.0658C34.8696 43.314 34.5157 43.457 34.0976 43.4935C33.7079 43.5275 33.3271 43.4294 32.9407 43.1719L32.9408 43.1718L32.9302 43.1651L22.2663 36.4386Z" stroke="#094067"/>
</g>
<defs>
<clipPath id="clip0_146_1166">
<rect width="44" height="44" fill="white"/>
</clipPath>
</defs>
</svg>
