<svg width="24" height="24" viewBox="0 0 24 24" fill="none" xmlns="http://www.w3.org/2000/svg">
<g clip-path="url(#clip0_128_689)">
<path d="M11.9997 20.1062L6.18302 23.7753C5.92606 23.9465 5.65742 24.0199 5.37709 23.9954C5.09677 23.971 4.85149 23.8731 4.64124 23.7019C4.431 23.5307 4.26748 23.3169 4.15068 23.0605C4.03388 22.8032 4.01052 22.5156 4.0806 22.1976L5.62238 15.2631L0.471434 10.6035C0.237831 10.3833 0.0920625 10.1324 0.034129 9.85059C-0.0247389 9.56979 -0.00745242 9.29486 0.0859887 9.0258C0.17943 8.75674 0.319592 8.53659 0.506474 8.36537C0.693356 8.19415 0.950319 8.08408 1.27736 8.03516L8.07521 7.41143L10.7032 0.880566C10.82 0.587044 11.0013 0.366902 11.2471 0.220142C11.4919 0.0733806 11.7428 0 11.9997 0C12.2567 0 12.5081 0.0733806 12.7538 0.220142C12.9986 0.366902 13.1794 0.587044 13.2962 0.880566L15.9243 7.41143L22.7221 8.03516C23.0491 8.08408 23.3061 8.19415 23.493 8.36537C23.6799 8.53659 23.82 8.75674 23.9135 9.0258C24.0069 9.29486 24.0247 9.56979 23.9667 9.85059C23.9079 10.1324 23.7616 10.3833 23.528 10.6035L18.3771 15.2631L19.9189 22.1976C19.989 22.5156 19.9656 22.8032 19.8488 23.0605C19.732 23.3169 19.5685 23.5307 19.3582 23.7019C19.148 23.8731 18.9027 23.971 18.6224 23.9954C18.3421 24.0199 18.0734 23.9465 17.8164 23.7753L11.9997 20.1062Z" fill="#F5C549"/>
</g>
<defs>
<clipPath id="clip0_128_689">
<rect width="24" height="24" fill="white"/>
</clipPath>
</defs>
</svg>
