<svg width="23" height="23" viewBox="0 0 23 23" fill="none" xmlns="http://www.w3.org/2000/svg">
<path d="M20.0732 1.27615C20.5293 0.819924 21.2689 0.819994 21.7249 1.27631C22.1807 1.73235 22.1805 2.47143 21.7247 2.9273L12.1663 12.4857C11.9484 12.7036 11.653 12.8263 11.3448 12.827C10.7009 12.8283 10.1779 12.3055 10.177 11.6616C10.1766 11.3514 10.2996 11.053 10.5189 10.8336L20.0732 1.27615Z" fill="#3DA9FC"/>
<path d="M13.7333 1.49995C14.7726 1.49995 15.2932 2.75662 14.5582 3.49158C14.3394 3.71037 14.0427 3.83328 13.7333 3.83328H7.60333C5.95147 3.83328 5.12555 3.83328 4.4924 4.14965C3.91126 4.44003 3.44008 4.91121 3.1497 5.49235C2.83333 6.1255 2.83333 6.95143 2.83333 8.60328V15.3966C2.83333 17.0485 2.83333 17.8744 3.1497 18.5076C3.44008 19.0887 3.91126 19.5599 4.4924 19.8503C5.12555 20.1666 5.95147 20.1666 7.60333 20.1666H14.3967C16.0485 20.1666 16.8745 20.1666 17.5076 19.8503C18.0887 19.5599 18.5599 19.0887 18.8503 18.5076C19.1667 17.8744 19.1667 17.0485 19.1667 15.3966V9.2667C19.1667 8.95728 19.2896 8.66053 19.5084 8.44174C20.2433 7.70678 21.5 8.22731 21.5 9.2667V17.7991C21.5 19.3858 21.5 20.1791 21.2075 20.7921C20.9116 21.412 20.412 21.9116 19.7922 22.2074C19.1792 22.5 18.3858 22.5 16.7991 22.5H5.27C3.61814 22.5 2.79221 22.5 2.15906 22.1836C1.57792 21.8932 1.10675 21.422 0.816366 20.8409C0.5 20.2077 0.5 19.3818 0.5 17.73V6.20084C0.5 4.61412 0.5 3.82075 0.792544 3.20779C1.08838 2.58792 1.58797 2.08834 2.20784 1.7925C2.8208 1.49995 3.61416 1.49995 5.20089 1.49995H13.7333Z" fill="#3DA9FC"/>
</svg>
