<svg width="36" height="36" viewBox="0 0 36 36" fill="none" xmlns="http://www.w3.org/2000/svg">
<g clip-path="url(#clip0_353_451)">
<path d="M36 18.1094C36 8.16888 27.9405 0.109375 18 0.109375C8.0595 0.109375 0 8.16888 0 18.1094C0 27.0944 6.582 34.5404 15.1875 35.8904V23.3129H10.617V18.1079H15.1875V14.1449C15.1875 9.63438 17.8755 7.14138 21.987 7.14138C23.955 7.14138 26.016 7.49388 26.016 7.49388V11.9234H23.745C21.5085 11.9234 20.811 13.3109 20.811 14.7344V18.1094H25.803L25.005 23.3144H20.811V35.8919C29.418 34.5404 36 27.0929 36 18.1094Z" fill="#1877F2"/>
</g>
<defs>
<clipPath id="clip0_353_451">
<rect width="36" height="36" fill="white"/>
</clipPath>
</defs>
</svg>
