<svg width="36" height="36" viewBox="0 0 36 36" fill="none" xmlns="http://www.w3.org/2000/svg">
<g clip-path="url(#clip0_353_739)">
<path d="M35.6176 18.405C35.6176 17.22 35.5126 16.095 35.3326 15H18.3826V21.765H28.0876C27.6526 23.985 26.3776 25.86 24.4876 27.135V31.635H30.2776C33.6676 28.5 35.6176 23.88 35.6176 18.405Z" fill="#4285F4"/>
<path d="M18.3826 35.9996C23.2426 35.9996 27.3076 34.3796 30.2776 31.6346L24.4876 27.1346C22.8676 28.2146 20.8126 28.8746 18.3826 28.8746C13.6876 28.8746 9.71263 25.7096 8.28763 21.4346H2.31763V26.0696C5.27263 31.9496 11.3476 35.9996 18.3826 35.9996Z" fill="#34A853"/>
<path d="M8.28757 21.4347C7.91257 20.3547 7.71757 19.1997 7.71757 17.9997C7.71757 16.7997 7.92757 15.6447 8.28757 14.5647V9.92969H2.31757C1.08757 12.3597 0.382568 15.0897 0.382568 17.9997C0.382568 20.9097 1.08757 23.6397 2.31757 26.0697L8.28757 21.4347Z" fill="#FBBC05"/>
<path d="M18.3826 7.125C21.0376 7.125 23.4076 8.04 25.2826 9.825L30.4126 4.695C27.3076 1.785 23.2426 0 18.3826 0C11.3476 0 5.27263 4.05 2.31763 9.93L8.28763 14.565C9.71263 10.29 13.6876 7.125 18.3826 7.125Z" fill="#EA4335"/>
</g>
<defs>
<clipPath id="clip0_353_739">
<rect width="36" height="36" fill="white"/>
</clipPath>
</defs>
</svg>
